<svg width="280" height="61" viewBox="0 0 280 61" fill="none" xmlns="http://www.w3.org/2000/svg">
<path d="M33.1351 9.78363L33.135 9.78371L33.1411 9.79627L38.8348 21.4465L38.9506 21.6833L39.2114 21.7217L51.7326 23.5604C52.6086 23.708 53.3251 24.2868 53.6134 25.1517L53.6132 25.1517L53.6178 25.1644C53.9004 25.9415 53.6852 26.8625 53.0548 27.4229L53.0447 27.4319L53.0351 27.4414L43.9252 36.4637L43.7402 36.6469L43.7842 36.9034L45.9737 49.6902C45.9737 49.6905 45.9738 49.6908 45.9738 49.6911C46.1171 50.5527 45.7587 51.4118 45.0414 51.9138L45.0283 51.923L45.0158 51.933C44.326 52.4848 43.4049 52.5113 42.5717 52.1378L31.3749 46.102L31.1386 45.9746L30.9018 46.1012L19.6083 52.1419C18.8782 52.5045 17.9571 52.4911 17.2595 51.933L17.247 51.923L17.2339 51.9138C16.5164 51.4116 16.1579 50.5521 16.3016 49.6902L16.3018 49.6891L18.4041 36.9001L18.4459 36.6454L18.2625 36.4637L9.15428 27.4431C9.15397 27.4428 9.15366 27.4425 9.15335 27.4422C8.59386 26.8819 8.36532 25.9406 8.57875 25.1385C8.8699 24.281 9.58345 23.7074 10.4548 23.5605L23.0634 21.7217L23.3265 21.6834L23.4418 21.4438L29.0479 9.79353L29.048 9.79358L29.0525 9.78363C29.405 9.0082 30.1842 8.5 31.1376 8.5C31.9943 8.5 32.779 9.00004 33.1351 9.78363Z" fill="#FFD600" stroke="white"/>
<path d="M87.3751 9.78363L87.375 9.78371L87.3811 9.79627L93.0748 21.4465L93.1906 21.6833L93.4514 21.7217L105.973 23.5604C106.849 23.708 107.565 24.2868 107.853 25.1517L107.853 25.1517L107.858 25.1644C108.14 25.9415 107.925 26.8625 107.295 27.4229L107.285 27.4319L107.275 27.4414L98.1651 36.4637L97.9802 36.6469L98.0242 36.9034L100.214 49.6902C100.214 49.6905 100.214 49.6908 100.214 49.6911C100.357 50.5527 99.9986 51.4118 99.2814 51.9138L99.2683 51.923L99.2558 51.933C98.566 52.4848 97.6449 52.5113 96.8117 52.1378L85.6149 46.102L85.3786 45.9746L85.1418 46.1012L73.8483 52.1419C73.1182 52.5045 72.1971 52.4911 71.4995 51.933L71.487 51.923L71.4739 51.9138C70.7564 51.4116 70.3979 50.5521 70.5416 49.6902L70.5418 49.6891L72.6441 36.9001L72.6859 36.6454L72.5025 36.4637L63.3943 27.4431C63.394 27.4428 63.3937 27.4425 63.3933 27.4422C62.8339 26.8819 62.6053 25.9406 62.8187 25.1385C63.1099 24.281 63.8234 23.7074 64.6948 23.5605L77.3034 21.7217L77.5665 21.6834L77.6818 21.4438L83.2879 9.79353L83.288 9.79358L83.2925 9.78363C83.645 9.0082 84.4242 8.5 85.3776 8.5C86.2343 8.5 87.019 9.00004 87.3751 9.78363Z" fill="#FFD600" stroke="white"/>
<path d="M141.615 9.78363L141.615 9.78371L141.621 9.79627L147.315 21.4465L147.431 21.6833L147.691 21.7217L160.213 23.5604C161.089 23.708 161.805 24.2868 162.093 25.1517L162.093 25.1517L162.098 25.1644C162.38 25.9415 162.165 26.8625 161.535 27.4229L161.525 27.4319L161.515 27.4414L152.405 36.4637L152.22 36.6469L152.264 36.9034L154.454 49.6902C154.454 49.6905 154.454 49.6908 154.454 49.6911C154.597 50.5527 154.239 51.4118 153.521 51.9138L153.508 51.923L153.496 51.933C152.806 52.4848 151.885 52.5113 151.052 52.1378L139.855 46.102L139.619 45.9746L139.382 46.1012L128.088 52.1419C127.358 52.5045 126.437 52.4911 125.739 51.933L125.727 51.923L125.714 51.9138C124.996 51.4116 124.638 50.5521 124.782 49.6902L124.782 49.6891L126.884 36.9001L126.926 36.6454L126.743 36.4637L117.634 27.4431C117.634 27.4428 117.634 27.4425 117.633 27.4422C117.074 26.8819 116.845 25.9406 117.059 25.1385C117.35 24.281 118.063 23.7074 118.935 23.5605L131.543 21.7217L131.806 21.6834L131.922 21.4438L137.528 9.79353L137.528 9.79358L137.533 9.78363C137.885 9.0082 138.664 8.5 139.618 8.5C140.474 8.5 141.259 9.00004 141.615 9.78363Z" fill="#FFD600" stroke="white"/>
<path d="M195.855 9.78363L195.855 9.78371L195.861 9.79627L201.555 21.4465L201.671 21.6833L201.931 21.7217L214.453 23.5604C215.329 23.708 216.045 24.2868 216.333 25.1517L216.333 25.1517L216.338 25.1644C216.62 25.9415 216.405 26.8625 215.775 27.4229L215.765 27.4319L215.755 27.4414L206.645 36.4637L206.46 36.6469L206.504 36.9034L208.694 49.6902C208.694 49.6905 208.694 49.6908 208.694 49.6911C208.837 50.5527 208.479 51.4118 207.761 51.9138L207.748 51.923L207.736 51.933C207.046 52.4848 206.125 52.5113 205.292 52.1378L194.095 46.102L193.859 45.9746L193.622 46.1012L182.328 52.1419C181.598 52.5045 180.677 52.4911 179.979 51.933L179.967 51.923L179.954 51.9138C179.236 51.4116 178.878 50.5521 179.022 49.6902L179.022 49.6891L181.124 36.9001L181.166 36.6454L180.982 36.4637L171.874 27.4431C171.874 27.4428 171.874 27.4425 171.873 27.4422C171.314 26.8819 171.085 25.9406 171.299 25.1385C171.59 24.281 172.303 23.7074 173.175 23.5605L185.783 21.7217L186.046 21.6834L186.162 21.4438L191.768 9.79353L191.768 9.79358L191.773 9.78363C192.125 9.0082 192.904 8.5 193.858 8.5C194.714 8.5 195.499 9.00004 195.855 9.78363Z" fill="#FFD600" stroke="white"/>
<path d="M250.095 9.78363L250.095 9.78371L250.101 9.79627L255.795 21.4465L255.911 21.6833L256.171 21.7217L268.693 23.5604C269.569 23.708 270.285 24.2868 270.573 25.1517L270.573 25.1517L270.578 25.1644C270.86 25.9415 270.645 26.8625 270.015 27.4229L270.005 27.4319L269.995 27.4414L260.885 36.4637L260.7 36.6469L260.744 36.9034L262.934 49.6902C262.934 49.6905 262.934 49.6908 262.934 49.6911C263.077 50.5527 262.719 51.4118 262.001 51.9138L261.988 51.923L261.976 51.933C261.286 52.4848 260.365 52.5113 259.532 52.1378L248.335 46.102L248.099 45.9746L247.862 46.1012L236.568 52.1419C235.838 52.5045 234.917 52.4911 234.219 51.933L234.207 51.923L234.194 51.9138C233.476 51.4116 233.118 50.5521 233.262 49.6902L233.262 49.6891L235.364 36.9001L235.406 36.6454L235.222 36.4637L226.114 27.4431C226.114 27.4428 226.114 27.4425 226.113 27.4422C225.554 26.8819 225.325 25.9406 225.539 25.1385C225.83 24.281 226.543 23.7074 227.415 23.5605L240.023 21.7217L240.286 21.6834L240.402 21.4438L246.008 9.79353L246.008 9.79358L246.013 9.78363C246.365 9.0082 247.144 8.5 248.098 8.5C248.954 8.5 249.739 9.00004 250.095 9.78363Z" fill="#FFD600" stroke="white"/>
</svg>
